{"title":"Bubble Gang 071610 tvrip XviD","uid":5696685,"size":478200888,"categoryP":"other","categoryS":"other","magnet":"?xt=urn:btih:0feb8d04ce0150ff8ec6e34be5bf608ad9d3029c&amp;dn=Bubble+Gang+071610+tvrip+XviD&amp;tr=udp%3A%2F%2Ftracker.openbittorrent.com%3A80&amp;tr=udp%3A%2F%2Fopen.demonii.com%3A1337&amp;tr=udp%3A%2F%2Ftracker.coppersurfer.tk%3A6969&amp;tr=udp%3A%2F%2Fexodus.desync.com%3A6969","seeders":0,"leechers":1,"uploader":null,"files":3,"time":1279330851,"description":"Bubble Gang is a sketch comedy television show in the Philippines. \nIt airs every Friday evenings by GMA Network. The show is part of \nthe network's GMA KiliTV block. Currently, it is now the longest-running \ngag show in Philippine television. The TV program is known for \ntheir parodies of TV commercials, politicians and current events\n\n\nGeneral\nComplete name                    : D:\\UPLOADS\\BUBLE GANG\\Bubble Gang 071610 tvrip XviD\\Bubble Gang 071610 tvrip.avi\nFormat                           : AVI\nFormat/Info                      : Audio Video Interleave\nFile size                        : 448 MiB\nDuration                         : 50mn 24s\nOverall bit rate                 : 1 243 Kbps\nWriting application              : VirtualDubMod 1.5.4.1 (build 2178/release)\nWriting library                  : VirtualDubMod build 2178/release\n\nVideo\nID                               : 0\nFormat                           : MPEG-4 Visual\nFormat profile                   : Advanced Simple@L5\nFormat settings, BVOP            : Yes\nFormat settings, QPel            : No\nFormat settings, GMC             : No warppoints\nFormat settings, Matrix          : Default (H.263)\nMuxing mode                      : Packed bitstream\nCodec ID                         : XVID\nCodec ID/Hint                    : XviD\nDuration                         : 50mn 24s\nBit rate                         : 1 126 Kbps\nWidth                            : 544 pixels\nHeight                           : 416 pixels\nDisplay aspect ratio             : 4:3\nFrame rate                       : 29.970 fps\nColor space                      : YUV\nChroma subsampling               : 4:2:0\nBit depth                        : 8 bits\nScan type                        : Progressive\nBits/(Pixel*Frame)               : 0.166\nStream size                      : 406 MiB (91%)\nWriting library                  : XviD 1.2.1 (UTC 2008-12-04)\n\nAudio\nID                               : 1\nFormat                           : MPEG Audio\nFormat version                   : Version 1\nFormat profile                   : Layer 3\nMode                             : Joint stereo\nCodec ID                         : 55\nCodec ID/Hint                    : MP3\nDuration                         : 50mn 24s\nBit rate mode                    : Variable\nBit rate                         : 103 Kbps\nNominal bit rate                 : 128 Kbps\nChannel(s)                       : 2 channels\nSampling rate                    : 48.0 KHz\nStream size                      : 37.0 MiB (8%)\nAlignment                        : Aligned on interleaves\nInterleave, duration             : 24 ms (0.72 video frame)\nInterleave, preload duration     : 493 ms\nWriting library                  : LAME3.98r\nEncoding settings                : -m j -V 4 -q 2 -lowpass 17 --abr 128\n\n\n","torrent":{"xt":"urn:btih:0feb8d04ce0150ff8ec6e34be5bf608ad9d3029c","amp;dn":"Bubble+Gang+071610+tvrip+XviD","amp;tr":["udp%3A%2F%2Ftracker.openbittorrent.com%3A80","udp%3A%2F%2Fopen.demonii.com%3A1337","udp%3A%2F%2Ftracker.coppersurfer.tk%3A6969","udp%3A%2F%2Fexodus.desync.com%3A6969"],"infoHash":"0feb8d04ce0150ff8ec6e34be5bf608ad9d3029c","infoHashBuffer":{"type":"Buffer","data":[15,235,141,4,206,1,80,255,142,198,227,75,229,191,96,138,217,211,2,156]},"announce":[],"urlList":[]}}